<svg width="18" height="18" viewBox="0 0 18 18" fill="none" xmlns="http://www.w3.org/2000/svg">
<path d="M16.9693 4.69531L11.3573 10.3073C10.7316 10.9315 9.88383 11.282 9 11.282C8.11617 11.282 7.26842 10.9315 6.64267 10.3073L1.03067 4.69531C1.02133 4.80065 1 4.89598 1 5.00065V13.0006C1.00106 13.8844 1.35259 14.7316 1.97748 15.3565C2.60237 15.9814 3.4496 16.3329 4.33333 16.334H13.6667C14.5504 16.3329 15.3976 15.9814 16.0225 15.3565C16.6474 14.7316 16.9989 13.8844 17 13.0006V5.00065C17 4.89598 16.9787 4.80065 16.9693 4.69531Z" fill="#037EC4"/>
<path d="M10.4146 9.36433L16.504 3.27433C16.209 2.7852 15.7929 2.38035 15.296 2.09881C14.799 1.81727 14.2378 1.66855 13.6666 1.66699H4.3333C3.76212 1.66855 3.20097 1.81727 2.70399 2.09881C2.20701 2.38035 1.79096 2.7852 1.49597 3.27433L7.5853 9.36433C7.96102 9.73853 8.46969 9.94864 8.99997 9.94864C9.53025 9.94864 10.0389 9.73853 10.4146 9.36433Z" fill="#037EC4"/>
</svg>
