<svg width="31" height="32" viewBox="0 0 31 32" fill="none" xmlns="http://www.w3.org/2000/svg">
<path d="M17.8816 16.0001C17.8816 17.4596 16.6984 18.6428 15.2389 18.6428C13.7794 18.6428 12.5962 17.4596 12.5962 16.0001C12.5962 14.5407 13.7794 13.3574 15.2389 13.3574C16.6984 13.3574 17.8816 14.5407 17.8816 16.0001Z" fill="#2F357F"/>
<path d="M19.7022 8.0127H10.7757C8.83266 8.0127 7.25208 9.59328 7.25208 11.5363V20.4628C7.25208 22.4058 8.83266 23.9864 10.7757 23.9864H19.7022C21.6452 23.9864 23.2258 22.4058 23.2258 20.4628V11.5363C23.2258 9.59328 21.6452 8.0127 19.7022 8.0127ZM15.2389 20.4041C12.8103 20.4041 10.8344 18.4282 10.8344 15.9996C10.8344 13.5709 12.8103 11.595 15.2389 11.595C17.6676 11.595 19.6435 13.5709 19.6435 15.9996C19.6435 18.4282 17.6676 20.4041 15.2389 20.4041ZM20.2895 11.8299C19.8029 11.8299 19.4085 11.4356 19.4085 10.949C19.4085 10.4625 19.8029 10.0681 20.2895 10.0681C20.776 10.0681 21.1704 10.4625 21.1704 10.949C21.1704 11.4356 20.776 11.8299 20.2895 11.8299Z" fill="#2F357F"/>
<path d="M22.3446 0.96582H8.13272C3.76124 0.96582 0.20459 4.52247 0.20459 8.89395V23.1059C0.20459 27.4774 3.76124 31.034 8.13272 31.034H22.3446C26.7161 31.034 30.2728 27.4774 30.2728 23.1059V8.89395C30.2728 4.52247 26.7161 0.96582 22.3446 0.96582ZM24.9873 20.4632C24.9873 23.3775 22.6162 25.7486 19.7019 25.7486H10.7754C7.86111 25.7486 5.49001 23.3775 5.49001 20.4632V11.5367C5.49001 8.62234 7.86111 6.25124 10.7754 6.25124H19.7019C22.6162 6.25124 24.9873 8.62234 24.9873 11.5367V20.4632Z" fill="#2F357F"/>
</svg>
