<svg width="31" height="32" viewBox="0 0 31 32" fill="none" xmlns="http://www.w3.org/2000/svg">
<path d="M28.036 0.96582H2.30489C1.10718 0.96582 0.136353 1.93665 0.136353 3.13436V28.8655C0.136353 30.0632 1.10718 31.034 2.30489 31.034H28.036C29.2337 31.034 30.2045 30.0632 30.2045 28.8655V3.13436C30.2045 1.93665 29.2337 0.96582 28.036 0.96582ZM10.8017 23.6931H7.14023V12.6775H10.8017V23.6931ZM8.97108 11.1733H8.94723C7.71855 11.1733 6.9239 10.3275 6.9239 9.2704C6.9239 8.18946 7.74287 7.36705 8.9954 7.36705C10.2479 7.36705 11.0187 8.18946 11.0426 9.2704C11.0426 10.3275 10.2479 11.1733 8.97108 11.1733ZM24.0043 23.6931H20.3432V17.8C20.3432 16.319 19.8131 15.309 18.4883 15.309C17.4769 15.309 16.8744 15.9903 16.6097 16.648C16.5129 16.8833 16.4893 17.2123 16.4893 17.5415V23.6931H12.828C12.828 23.6931 12.876 13.7109 12.828 12.6775H16.4893V14.2372C16.9758 13.4866 17.8464 12.4189 19.789 12.4189C22.1979 12.4189 24.0043 13.9933 24.0043 17.3768V23.6931Z" fill="#2F357F"/>
</svg>
