<svg width="18" height="18" viewBox="0 0 18 18" fill="none" xmlns="http://www.w3.org/2000/svg">
<g clip-path="url(#clip0_47_201)">
<path d="M12.7118 1.5375C11.721 0.546 10.4025 0 9.00001 0C7.59751 0 6.27901 0.546 5.28751 1.5375C3.24076 3.58425 3.24076 6.915 5.29351 8.96775L7.16476 10.7978C7.67101 11.2928 8.33551 11.5402 9.00001 11.5402C9.66451 11.5402 10.329 11.2928 10.8353 10.7978L12.7118 8.96175C13.7033 7.97025 14.25 6.65175 14.25 5.24925C14.25 3.84675 13.7033 2.52975 12.7118 1.5375ZM9.00001 7.4925C7.75726 7.4925 6.75001 6.48525 6.75001 5.2425C6.75001 3.99975 7.75726 2.9925 9.00001 2.9925C10.2428 2.9925 11.25 3.99975 11.25 5.2425C11.25 6.48525 10.2428 7.4925 9.00001 7.4925ZM18 12.5715C18.0015 12.837 17.8628 13.083 17.6363 13.2188L10.2405 17.6565C9.85801 17.886 9.42901 18.0007 9.00076 18.0007C8.57251 18.0007 8.14276 17.886 7.76101 17.6565L0.363762 13.2188C0.136512 13.0822 -0.0014879 12.8362 1.21046e-05 12.5715C0.0015121 12.3067 0.142512 12.0623 0.371262 11.9288L4.01251 9.79725C4.08751 9.87975 4.16476 9.9615 4.24426 10.041L6.11551 11.8702C6.88651 12.6248 7.91176 13.041 9.00001 13.041C10.0883 13.041 11.1128 12.6248 11.8845 11.8702L13.773 10.023C13.8465 9.9495 13.9185 9.87375 13.9883 9.79725L17.6288 11.928C17.8575 12.0623 17.9985 12.3075 18 12.5715Z" fill="#037EC4"/>
</g>
<defs>
<clipPath id="clip0_47_201">
<rect width="18" height="18" fill="white"/>
</clipPath>
</defs>
</svg>
