<svg width="18" height="18" viewBox="0 0 18 18" fill="none" xmlns="http://www.w3.org/2000/svg">
<path d="M16.3454 8.33248C16.1684 8.33248 15.9985 8.26214 15.8733 8.13693C15.7481 8.01173 15.6778 7.84191 15.6778 7.66484C15.6764 6.24873 15.1132 4.89103 14.1119 3.88968C13.1105 2.88834 11.7528 2.32517 10.3367 2.32375C10.1596 2.32375 9.98981 2.25341 9.86461 2.12821C9.7394 2.003 9.66906 1.83318 9.66906 1.65612C9.66906 1.47905 9.7394 1.30923 9.86461 1.18403C9.98981 1.05882 10.1596 0.98848 10.3367 0.98848C12.1068 0.990423 13.8038 1.69445 15.0555 2.94609C16.3071 4.19773 17.0111 5.89476 17.0131 7.66484C17.0131 7.84191 16.9427 8.01173 16.8175 8.13693C16.6923 8.26214 16.5225 8.33248 16.3454 8.33248ZM14.3425 7.66484C14.3425 6.60243 13.9205 5.58354 13.1692 4.8323C12.418 4.08107 11.3991 3.65903 10.3367 3.65903C10.1596 3.65903 9.98981 3.72937 9.86461 3.85457C9.7394 3.97978 9.66906 4.14959 9.66906 4.32666C9.66906 4.50373 9.7394 4.67355 9.86461 4.79875C9.98981 4.92396 10.1596 4.9943 10.3367 4.9943C11.045 4.9943 11.7242 5.27566 12.2251 5.77648C12.7259 6.27731 13.0072 6.95657 13.0072 7.66484C13.0072 7.84191 13.0776 8.01173 13.2028 8.13693C13.328 8.26214 13.4978 8.33248 13.6749 8.33248C13.8519 8.33248 14.0218 8.26214 14.147 8.13693C14.2722 8.01173 14.3425 7.84191 14.3425 7.66484ZM15.8 15.786L16.4075 15.0856C16.7942 14.6977 17.0114 14.1723 17.0114 13.6245C17.0114 13.0767 16.7942 12.5513 16.4075 12.1634C16.3868 12.1427 14.7805 10.9069 14.7805 10.9069C14.395 10.5399 13.8829 10.3356 13.3506 10.3363C12.8183 10.3371 12.3068 10.5428 11.9223 10.9109L10.6498 11.9831C9.6111 11.5532 8.66753 10.9224 7.87331 10.1268C7.07909 9.33117 6.44986 8.38652 6.02176 7.34705L7.08998 6.07854C7.45833 5.6941 7.66435 5.18249 7.66522 4.65007C7.66609 4.11764 7.46174 3.60537 7.09466 3.21972C7.09466 3.21972 5.85752 1.61539 5.83683 1.59469C5.45591 1.2113 4.93945 0.993168 4.39902 0.987421C3.8586 0.981675 3.33762 1.18878 2.94863 1.56398L2.18085 2.23162C-2.35507 7.49393 7.41245 17.186 12.8483 17.0118C13.3973 17.0149 13.9413 16.9081 14.4482 16.6976C14.9552 16.487 15.4148 16.1771 15.8 15.786Z" fill="#037EC4"/>
</svg>
