<svg width="31" height="32" viewBox="0 0 31 32" fill="none" xmlns="http://www.w3.org/2000/svg">
<g clip-path="url(#clip0_51_143)">
<path d="M16.1076 15.4872L22.8741 25.1656H20.0971L14.5755 17.268V17.2675L13.7649 16.1081L7.31482 6.88184H10.0918L15.297 14.3278L16.1076 15.4872Z" fill="#2F357F"/>
<path d="M26.8875 0.96582H3.31717C1.52288 0.96582 0.0682373 2.42046 0.0682373 4.21475V27.7851C0.0682373 29.5794 1.52288 31.034 3.31717 31.034H26.8875C28.6818 31.034 30.1364 29.5794 30.1364 27.7851V4.21475C30.1364 2.42046 28.6818 0.96582 26.8875 0.96582ZM19.2467 26.4642L13.6592 18.3323L6.66363 26.4642H4.85562L12.8564 17.1644L4.85562 5.52016H10.958L16.2489 13.2205L22.8732 5.52016H24.6813L17.052 14.3887H17.0515L25.349 26.4642H19.2467Z" fill="#2F357F"/>
</g>
<defs>
<clipPath id="clip0_51_143">
<rect width="30.0682" height="30.0682" fill="white" transform="translate(0.0682373 0.96582)"/>
</clipPath>
</defs>
</svg>
