<svg width="31" height="32" viewBox="0 0 31 32" fill="none" xmlns="http://www.w3.org/2000/svg">
<path d="M13.1201 12.7822L18.6909 15.9515L13.1201 19.1202V12.7822Z" fill="#2F357F"/>
<path d="M27.0918 0.96582H3.52178C1.72743 0.96582 0.272705 2.42054 0.272705 4.2149V27.7849C0.272705 29.5793 1.72743 31.034 3.52178 31.034H27.0918C28.8862 31.034 30.3409 29.5793 30.3409 27.7849V4.2149C30.3409 2.42054 28.8862 0.96582 27.0918 0.96582ZM25.511 21.1131C25.2664 22.0364 24.5437 22.7632 23.6269 23.0096C21.9645 23.4583 15.2998 23.4583 15.2998 23.4583C15.2998 23.4583 8.63502 23.4583 6.97264 23.0096C6.05582 22.7632 5.33315 22.0364 5.08854 21.1131C4.64274 19.4402 4.64274 15.9501 4.64274 15.9501C4.64274 15.9501 4.64274 12.4593 5.08854 10.7864C5.33315 9.86368 6.05582 9.13632 6.97264 8.88995C8.63502 8.44181 15.2998 8.44181 15.2998 8.44181C15.2998 8.44181 21.9645 8.44181 23.6269 8.88995C24.5437 9.13632 25.2664 9.86368 25.511 10.7864C25.9568 12.4593 25.9568 15.9501 25.9568 15.9501C25.9568 15.9501 25.9568 19.4402 25.511 21.1131Z" fill="#2F357F"/>
</svg>
