<svg width="28" height="29" viewBox="0 0 28 29" fill="none" xmlns="http://www.w3.org/2000/svg">
<path d="M19.1798 10.4403C19.6186 10.8778 19.8655 11.4626 19.8688 12.0823L19.9763 17.3614C19.979 17.4933 19.9262 17.6135 19.8397 17.6999C19.7572 17.7824 19.645 17.8339 19.5183 17.8365C19.2616 17.8425 19.0478 17.6366 19.0425 17.3792L18.9349 12.0935C18.9336 11.877 18.8848 11.6711 18.795 11.485L10.6002 19.6798C10.418 19.862 10.1224 19.862 9.94023 19.6798C9.75808 19.4977 9.75808 19.202 9.94023 19.0198L18.1311 10.829C17.9443 10.7412 17.7391 10.6957 17.5259 10.6964L12.2442 10.6337C11.9868 10.631 11.7802 10.4192 11.7829 10.1618C11.7868 9.90439 11.998 9.69716 12.2554 9.70112L17.5292 9.76382C18.1436 9.7592 18.7363 10.0034 19.1798 10.4403Z" fill="#2F357F" stroke="#2F357F" stroke-width="0.5712"/>
</svg>
