<svg width="25" height="25" viewBox="0 0 25 25" fill="none" xmlns="http://www.w3.org/2000/svg">
<g clip-path="url(#clip0_21_26)">
<path d="M19.792 4.16667H19.6868C19.2024 1.79271 17.0993 0 14.5837 0H5.2087C2.33682 0 0.000362844 2.33646 0.000362844 5.20833V18.599C-0.0558872 20.3312 2.06703 21.4688 3.47849 20.4604L6.56911 18.4C7.28786 20.4177 9.19724 21.875 11.4587 21.875H17.3931L21.5212 24.6271C22.9337 25.6344 25.0556 24.4979 25.0004 22.7656V9.375C25.0004 6.50312 22.6639 4.16667 19.792 4.16667ZM2.32224 18.7271C2.27015 18.8094 2.04307 18.6865 2.0837 18.599V5.20833C2.0837 3.48542 3.48578 2.08333 5.2087 2.08333H14.5837C16.3066 2.08333 17.7087 3.48542 17.7087 5.20833V12.5C17.7087 14.2229 16.3066 15.625 14.5837 15.625H7.29203C7.08578 15.624 6.89307 15.7062 6.7139 15.8L2.32224 18.7271ZM22.917 22.7656C22.9577 22.8552 22.7264 22.9771 22.6774 22.8937L18.2868 19.9667C18.116 19.8531 17.9149 19.7917 17.7087 19.7917H11.4587C10.1024 19.7917 8.95661 18.9177 8.52536 17.7083H14.5837C17.4556 17.7083 19.792 15.3719 19.792 12.5V6.25C21.5149 6.25 22.917 7.65208 22.917 9.375V22.7656ZM8.0212 12.5H6.25036C5.67536 12.5 5.2087 12.0333 5.2087 11.4583V6.25C5.2087 5.675 5.67536 5.20833 6.25036 5.20833H8.0212C8.48161 5.20833 8.85453 5.58125 8.85453 6.04167C8.85453 6.50208 8.48161 6.875 8.0212 6.875H6.87432V8.02188H8.0212C8.48161 8.02188 8.85453 8.39479 8.85453 8.85521C8.85453 9.31563 8.48161 9.68854 8.0212 9.68854H6.87432V10.8354H8.0212C8.48161 10.8354 8.85453 11.2083 8.85453 11.6687C8.85453 12.1292 8.48161 12.5021 8.0212 12.5021V12.5ZM9.8962 11.7219V6.16042C9.8962 5.63437 10.3222 5.20833 10.8483 5.20833C11.217 5.20833 11.5514 5.42083 11.7097 5.75417L13.2024 8.91146V5.98646C13.2024 5.55729 13.5504 5.20833 13.9806 5.20833C14.4108 5.20833 14.7587 5.55625 14.7587 5.98646V11.5479C14.7587 12.074 14.3327 12.5 13.8066 12.5C13.4389 12.5 13.1035 12.2875 12.9462 11.9552L11.4545 8.80417V11.7219C11.4545 12.151 11.1066 12.5 10.6764 12.5C10.2462 12.5 9.89828 12.1521 9.89828 11.7219H9.8962Z" fill="#2F357F"/>
</g>
<defs>
<clipPath id="clip0_21_26">
<rect width="25" height="25" fill="white"/>
</clipPath>
</defs>
</svg>
