<svg width="24" height="24" viewBox="0 0 24 24" fill="none" xmlns="http://www.w3.org/2000/svg">
<path d="M21.2745 23.0001H2.72549C1.77405 23.0001 1 22.226 1 21.2746V4.45108C1 3.49964 1.77405 2.72559 2.72549 2.72559H4.01961C4.25781 2.72559 4.45098 2.91875 4.45098 3.15696V3.99913C4.45098 4.24013 4.63733 4.44275 4.86648 4.45077C5.10572 4.46113 5.31373 4.26861 5.31373 4.0197V3.15696C5.31373 2.91875 5.50685 2.72559 5.7451 2.72559H8.76471C9.00291 2.72559 9.19608 2.91875 9.19608 3.15696V3.99913C9.19608 4.24013 9.38243 4.44275 9.61158 4.45077C9.85246 4.46113 10.0588 4.26688 10.0588 4.0197V3.15696C10.0588 2.91875 10.2519 2.72559 10.4902 2.72559H13.5098C13.748 2.72559 13.9412 2.91875 13.9412 3.15696V3.99913C13.9412 4.24013 14.1275 4.44275 14.3567 4.45077C14.5952 4.46108 14.8039 4.26912 14.8039 4.0197V3.15696C14.8039 2.91875 14.9971 2.72559 15.2353 2.72559H18.2549C18.4931 2.72559 18.6863 2.91875 18.6863 3.15696V3.99913C18.6863 4.24013 18.8726 4.44275 19.1018 4.45077C19.3418 4.46113 19.549 4.26783 19.549 4.0197V3.15696C19.549 2.91875 19.7422 2.72559 19.9804 2.72559H21.2745C22.2259 2.72559 23 3.49964 23 4.45108V21.2746C23 22.226 22.2259 23.0001 21.2745 23.0001ZM2.72549 3.58833C2.24977 3.58833 1.86275 3.97536 1.86275 4.45108V21.2746C1.86275 21.7503 2.24977 22.1374 2.72549 22.1374H21.2745C21.7502 22.1374 22.1373 21.7503 22.1373 21.2746V4.45108C22.1373 3.97536 21.7502 3.58833 21.2745 3.58833H20.4118V4.0197C20.4118 4.75148 19.8077 5.33837 19.0716 5.313C18.3717 5.2885 17.8235 4.71137 17.8235 3.99913V3.58833H15.6667V4.0197C15.6667 4.75187 15.0621 5.33837 14.3265 5.313C13.6266 5.2885 13.0784 4.71137 13.0784 3.99913V3.58833H10.9216V4.0197C10.9216 4.75092 10.3179 5.33841 9.58138 5.313C8.88152 5.2885 8.33333 4.71137 8.33333 3.99913V3.58833H6.17647V4.0197C6.17647 4.74959 5.57432 5.33841 4.83628 5.313C4.13642 5.2885 3.58824 4.71137 3.58824 3.99913V3.58833H2.72549Z" fill="white"/>
<path d="M22.5686 7.90181H1.43137C1.19313 7.90181 1 7.70868 1 7.47044C1 7.23219 1.19313 7.03906 1.43137 7.03906H22.5686C22.8068 7.03906 23 7.23219 23 7.47044C23 7.70868 22.8068 7.90181 22.5686 7.90181Z" fill="white"/>
<path d="M19.1176 5.31373C18.4041 5.31373 17.8235 4.73318 17.8235 4.01961V2.29412C17.8235 1.58054 18.4041 1 19.1176 1C19.8327 1 20.4118 1.57912 20.4118 2.29412V4.01961C20.4118 4.73318 19.8312 5.31373 19.1176 5.31373ZM19.1176 1.86275C18.8798 1.86275 18.6863 2.05626 18.6863 2.29412V4.01961C18.6863 4.25747 18.8798 4.45098 19.1176 4.45098C19.3555 4.45098 19.549 4.25747 19.549 4.01961V2.29412C19.549 2.05604 19.3558 1.86275 19.1176 1.86275Z" fill="white"/>
<path d="M14.3725 5.31373C13.659 5.31373 13.0784 4.73318 13.0784 4.01961V2.29412C13.0784 1.58054 13.659 1 14.3725 1C15.0876 1 15.6667 1.57912 15.6667 2.29412V4.01961C15.6667 4.73318 15.0861 5.31373 14.3725 5.31373ZM14.3725 1.86275C14.1347 1.86275 13.9412 2.05626 13.9412 2.29412V4.01961C13.9412 4.25747 14.1347 4.45098 14.3725 4.45098C14.6104 4.45098 14.8039 4.25747 14.8039 4.01961V2.29412C14.8039 2.05604 14.6107 1.86275 14.3725 1.86275Z" fill="white"/>
<path d="M9.62745 5.31373C8.91387 5.31373 8.33333 4.73318 8.33333 4.01961V2.29412C8.33333 1.58054 8.91387 1 9.62745 1C10.3425 1 10.9216 1.57912 10.9216 2.29412V4.01961C10.9216 4.73318 10.341 5.31373 9.62745 5.31373ZM9.62745 1.86275C9.38959 1.86275 9.19608 2.05626 9.19608 2.29412V4.01961C9.19608 4.25747 9.38959 4.45098 9.62745 4.45098C9.86531 4.45098 10.0588 4.25747 10.0588 4.01961V2.29412C10.0588 2.05604 9.86561 1.86275 9.62745 1.86275Z" fill="white"/>
<path d="M4.88235 5.31373C4.16878 5.31373 3.58823 4.73318 3.58823 4.01961V2.29412C3.58823 1.58054 4.16878 1 4.88235 1C5.59735 1 6.17647 1.57912 6.17647 2.29412V4.01961C6.17647 4.73318 5.59593 5.31373 4.88235 5.31373ZM4.88235 1.86275C4.64449 1.86275 4.45098 2.05626 4.45098 2.29412V4.01961C4.45098 4.25747 4.64449 4.45098 4.88235 4.45098C5.12021 4.45098 5.31372 4.25747 5.31372 4.01961V2.29412C5.31372 2.05604 5.12051 1.86275 4.88235 1.86275Z" fill="white"/>
<path d="M6.60784 12.2159H4.45098C4.21273 12.2159 4.01961 12.0227 4.01961 11.7845V9.62766C4.01961 9.38941 4.21273 9.19629 4.45098 9.19629H6.60784C6.84605 9.19629 7.03922 9.38941 7.03922 9.62766V11.7845C7.03922 12.0227 6.84605 12.2159 6.60784 12.2159ZM4.88235 11.3532H6.17647V10.059H4.88235V11.3532Z" fill="white"/>
<path d="M10.9216 12.2159H8.7647C8.52646 12.2159 8.33333 12.0227 8.33333 11.7845V9.62766C8.33333 9.38941 8.52646 9.19629 8.7647 9.19629H10.9216C11.1598 9.19629 11.3529 9.38941 11.3529 9.62766V11.7845C11.3529 12.0227 11.1598 12.2159 10.9216 12.2159ZM9.19608 11.3532H10.4902V10.059H9.19608V11.3532Z" fill="white"/>
<path d="M15.2353 12.2159H13.0784C12.8402 12.2159 12.6471 12.0227 12.6471 11.7845V9.62766C12.6471 9.38941 12.8402 9.19629 13.0784 9.19629H15.2353C15.4735 9.19629 15.6667 9.38941 15.6667 9.62766V11.7845C15.6667 12.0227 15.4735 12.2159 15.2353 12.2159ZM13.5098 11.3532H14.8039V10.059H13.5098V11.3532Z" fill="white"/>
<path d="M19.549 12.2159H17.3922C17.154 12.2159 16.9608 12.0227 16.9608 11.7845V9.62766C16.9608 9.38941 17.154 9.19629 17.3922 9.19629H19.549C19.7872 9.19629 19.9804 9.38941 19.9804 9.62766V11.7845C19.9804 12.0227 19.7872 12.2159 19.549 12.2159ZM17.8235 11.3532H19.1176V10.059H17.8235V11.3532Z" fill="white"/>
<path d="M15.2353 16.5294H13.0784C12.8402 16.5294 12.6471 16.3362 12.6471 16.098V13.9411C12.6471 13.7029 12.8402 13.5098 13.0784 13.5098H15.2353C15.4735 13.5098 15.6667 13.7029 15.6667 13.9411V16.098C15.6667 16.3362 15.4735 16.5294 15.2353 16.5294ZM13.5098 15.6666H14.8039V14.3725H13.5098V15.6666Z" fill="white"/>
<path d="M19.549 16.5294H17.3922C17.154 16.5294 16.9608 16.3362 16.9608 16.098V13.9411C16.9608 13.7029 17.154 13.5098 17.3922 13.5098H19.549C19.7872 13.5098 19.9804 13.7029 19.9804 13.9411V16.098C19.9804 16.3362 19.7872 16.5294 19.549 16.5294ZM17.8235 15.6666H19.1176V14.3725H17.8235V15.6666Z" fill="white"/>
<path d="M15.2353 20.8433H13.0784C12.8402 20.8433 12.6471 20.6502 12.6471 20.412V18.2551C12.6471 18.0169 12.8402 17.8237 13.0784 17.8237H15.2353C15.4735 17.8237 15.6667 18.0169 15.6667 18.2551V20.412C15.6667 20.6502 15.4735 20.8433 15.2353 20.8433ZM13.5098 19.9806H14.8039V18.6865H13.5098V19.9806Z" fill="white"/>
<path d="M19.549 20.8433H17.3922C17.154 20.8433 16.9608 20.6502 16.9608 20.412V18.2551C16.9608 18.0169 17.154 17.8237 17.3922 17.8237H19.549C19.7872 17.8237 19.9804 18.0169 19.9804 18.2551V20.412C19.9804 20.6502 19.7872 20.8433 19.549 20.8433ZM17.8235 19.9806H19.1176V18.6865H17.8235V19.9806Z" fill="white"/>
<path d="M6.60784 16.5294H4.45098C4.21273 16.5294 4.01961 16.3362 4.01961 16.098V13.9411C4.01961 13.7029 4.21273 13.5098 4.45098 13.5098H6.60784C6.84605 13.5098 7.03922 13.7029 7.03922 13.9411V16.098C7.03922 16.3362 6.84605 16.5294 6.60784 16.5294ZM4.88235 15.6666H6.17647V14.3725H4.88235V15.6666Z" fill="white"/>
<path d="M10.9216 16.5294H8.7647C8.52646 16.5294 8.33333 16.3362 8.33333 16.098V13.9411C8.33333 13.7029 8.52646 13.5098 8.7647 13.5098H10.9216C11.1598 13.5098 11.3529 13.7029 11.3529 13.9411V16.098C11.3529 16.3362 11.1598 16.5294 10.9216 16.5294ZM9.19608 15.6666H10.4902V14.3725H9.19608V15.6666Z" fill="white"/>
<path d="M6.60784 20.8433H4.45098C4.21273 20.8433 4.01961 20.6502 4.01961 20.412V18.2551C4.01961 18.0169 4.21273 17.8237 4.45098 17.8237H6.60784C6.84605 17.8237 7.03922 18.0169 7.03922 18.2551V20.412C7.03922 20.6502 6.84605 20.8433 6.60784 20.8433ZM4.88235 19.9806H6.17647V18.6865H4.88235V19.9806Z" fill="white"/>
<path d="M10.9216 20.8433H8.7647C8.52646 20.8433 8.33333 20.6502 8.33333 20.412V18.2551C8.33333 18.0169 8.52646 17.8237 8.7647 17.8237H10.9216C11.1598 17.8237 11.3529 18.0169 11.3529 18.2551V20.412C11.3529 20.6502 11.1598 20.8433 10.9216 20.8433ZM9.19608 19.9806H10.4902V18.6865H9.19608V19.9806Z" fill="white"/>
</svg>
